<mxfile host="app.diagrams.net" modified="2024-04-03T07:56:09.097Z" agent="Mozilla/5.0 (X11; Ubuntu; Linux x86_64; rv:124.0) Gecko/20100101 Firefox/124.0" version="24.2.1" etag="SgGYayx6j3H0k04z8i9U" type="github">
  <diagram name="Page-1" id="T4l_ja7VV4JWPxKuEXF5">
    <mxGraphModel>
      <root>
        <mxCell id="0" />
        <mxCell id="1" parent="0" />
      </root>
    </mxGraphModel>
  </diagram>
</mxfile>
